<svg width="214" height="214" viewBox="0 0 214 214" fill="none" xmlns="http://www.w3.org/2000/svg">
<path d="M203 85.6667H11C5.13331 85.6667 0.333313 90.4667 0.333313 96.3333V151.693C0.333313 153.827 0.439979 155.96 0.653313 158.093C2.78665 190.947 23.0533 211.213 55.9066 213.347C58.04 213.56 60.1733 213.667 62.3066 213.667H151.693C153.827 213.667 155.96 213.56 158.093 213.347C190.947 211.213 211.213 190.947 213.347 158.093C213.56 155.96 213.667 153.827 213.667 151.693V96.3333C213.667 90.4667 208.867 85.6667 203 85.6667ZM64.3333 151.267C67.96 156.6 72.8666 160.973 78.52 163.853C82.5733 165.773 84.1733 170.573 82.1466 174.627C80.76 177.4 77.88 179 75 179C73.8266 179 72.5466 178.68 71.48 178.147C63.16 174.093 56.12 167.8 51.1066 160.227C46.84 153.827 46.84 145.507 51.1066 139.107C56.12 131.533 63.16 125.24 71.48 121.187C75.4266 119.16 80.2266 120.76 82.1466 124.707C84.1733 128.76 82.5733 133.56 78.52 135.48C72.8666 138.36 67.96 142.733 64.3333 148.067C63.6933 149.027 63.6933 150.307 64.3333 151.267ZM165.133 160.227C160.013 167.8 152.973 174.093 144.76 178.147C143.829 178.62 142.814 178.904 141.773 178.983C140.732 179.062 139.685 178.934 138.694 178.607C137.702 178.28 136.786 177.76 135.996 177.076C135.206 176.393 134.56 175.561 134.093 174.627C133.608 173.69 133.314 172.666 133.228 171.615C133.143 170.563 133.267 169.505 133.595 168.502C133.923 167.499 134.447 166.572 135.137 165.774C135.827 164.975 136.668 164.323 137.613 163.853C143.373 160.973 148.28 156.6 151.8 151.267C152.164 150.813 152.362 150.248 152.362 149.667C152.362 149.085 152.164 148.521 151.8 148.067C148.28 142.733 143.373 138.36 137.613 135.48C136.668 135.011 135.827 134.358 135.137 133.56C134.447 132.762 133.923 131.834 133.595 130.831C133.267 129.828 133.143 128.77 133.228 127.719C133.314 126.667 133.608 125.643 134.093 124.707C136.013 120.76 140.813 119.16 144.76 121.187C152.973 125.24 160.013 131.533 165.133 139.107C169.4 145.507 169.4 153.827 165.133 160.227ZM213.667 62.3067V64.3333C213.667 70.2 208.867 75 203 75L11 75.1067C5.13331 75.1067 0.333313 70.3067 0.333313 64.44V62.3067C0.333313 60.1733 0.439979 58.04 0.653313 55.9067C2.78665 23.0533 23.0533 2.78666 55.9066 0.653328C58.04 0.439995 60.1733 0.333328 62.3066 0.333328H151.693C153.827 0.333328 155.96 0.439995 158.093 0.653328C190.947 2.78666 211.213 23.0533 213.347 55.9067C213.56 58.04 213.667 60.1733 213.667 62.3067Z" fill="#3788D8"/>
</svg>
